<mxfile host="app.diagrams.net" modified="2023-07-06T03:17:59.091Z" agent="Mozilla/5.0 (Macintosh; Intel Mac OS X 10_15_7) AppleWebKit/537.36 (KHTML, like Gecko) Chrome/114.0.0.0 Safari/537.36" etag="br2TtqpbjgAQIjsDaUGJ" version="21.6.1" type="github">
  <diagram name="ページ1" id="xwieQ8OmtwnucT-wFw41">
    <mxGraphModel dx="1067" dy="715" grid="1" gridSize="10" guides="1" tooltips="1" connect="1" arrows="1" fold="1" page="1" pageScale="1" pageWidth="827" pageHeight="1169" math="0" shadow="0">
      <root>
        <mxCell id="0" />
        <mxCell id="1" parent="0" />
        <mxCell id="QlMEVpn3lmxcFy2L6wsP-1" value="users&lt;br&gt;&lt;br&gt;- id&lt;br&gt;- name" style="rounded=0;whiteSpace=wrap;html=1;" parent="1" vertex="1">
          <mxGeometry x="220" y="140" width="120" height="100" as="geometry" />
        </mxCell>
        <mxCell id="JBNGJu1-4gIMe9xt3pvD-2" value="" style="rounded=0;orthogonalLoop=1;jettySize=auto;html=1;" edge="1" parent="1" source="JBNGJu1-4gIMe9xt3pvD-1" target="QlMEVpn3lmxcFy2L6wsP-1">
          <mxGeometry relative="1" as="geometry" />
        </mxCell>
        <mxCell id="JBNGJu1-4gIMe9xt3pvD-1" value="phones&lt;br&gt;&lt;br&gt;- user_id&lt;br&gt;" style="rounded=0;whiteSpace=wrap;html=1;" vertex="1" parent="1">
          <mxGeometry x="130" y="320" width="120" height="60" as="geometry" />
        </mxCell>
      </root>
    </mxGraphModel>
  </diagram>
</mxfile>
